<svg xmlns="http://www.w3.org/2000/svg" id="OSS_x5F_Review_x5F_Toolkit" width="175" height="273.8" version="1.1" viewBox="0 0 175 273.8" xml:space="preserve"><metadata id="metadata4359"/><style id="style4265" type="text/css">.st1{fill:#fff;stroke:#fff;stroke-width:.4;stroke-miterlimit:10}.st3{filter:url(#Adobe_OpacityMaskFilter)}.st7{fill:#fff}.st15{fill:#b6a0cb}.st16{fill:#997bb7}.st17{fill:#b39cc9}.st18{fill:#9575b3}.st19{fill:#673a93}.st20{fill:#ae97c6}</style><path id="path4267" fill="#fff" stroke="#fff" stroke-miterlimit="10" stroke-width=".4" d="m175 105-35 35h-35l-35 35h29v70l-35-35-64 64v-98.9l35-35h-35l69.9-69.9-17.4-17.7-17.5 17.5v-70h70l-17.5 17.5 35 35-35.1 34.9 17.6 17.5h70z" class="st1"/><defs id="defs4272"><filter id="Adobe_OpacityMaskFilter" width="174.9" height="273.9" x="2.8" y="1.3" filterUnits="userSpaceOnUse"><feColorMatrix id="feColorMatrix4269" values="1 0 0 0 0 0 1 0 0 0 0 0 1 0 0 0 0 0 1 0"/></filter></defs><mask id="SVGID_1_" width="174.9" height="273.9" x="2.8" y="1.3" maskUnits="userSpaceOnUse"><g id="g4293" class="st3" filter="url(#Adobe_OpacityMaskFilter)"><linearGradient id="SVGID_2_" x1="152.73" x2="20.355" y1="30.111" y2="259.38" gradientUnits="userSpaceOnUse"><stop id="stop4274" offset="0" stop-color="#fff"/><stop id="stop4276" offset=".108" stop-color="#F9F9F9"/><stop id="stop4278" offset=".252" stop-color="#E8E8E8"/><stop id="stop4280" offset=".415" stop-color="#CDCDCD"/><stop id="stop4282" offset=".593" stop-color="#A6A6A6"/><stop id="stop4284" offset=".782" stop-color="#757575"/><stop id="stop4286" offset=".979" stop-color="#3A3A3A"/><stop id="stop4288" offset="1" stop-color="#333"/></linearGradient><rect id="rect4291" width="174.9" height="273.9" x="2.8" y="1.3" fill="url(#SVGID_2_)" stroke="#fff" stroke-miterlimit="10" stroke-width=".31"/></g></mask><g id="g4300" transform="translate(-2.8,-1.3)"><polygon id="polygon4296" fill="#b6a0cb" points="72.8 71.5 142.5 141.1 3.1 141.1" class="st15"/><path id="path4298" fill="#fff" d="m72.8 71.6 69.5 69.5h-139l69.5-69.5m0-0.3-70 69.9h139.9z" class="st7"/></g><polygon id="polygon4302" fill="#997bb7" points="2.9 176.3 101.5 176.3 2.9 274.9" class="st16" transform="translate(-2.8,-1.3)"/><path id="path4304" fill="#fff" d="m98.5 175.1-98.3 98.3v-98.3h98.3m0.5-0.2h-99v98.9z" class="st7"/><g id="g4312" transform="translate(-2.8,-1.3)"><polygon id="polygon4308" fill="#b39cc9" points="101.7 176.5 101.7 246 66.9 211.2" class="st17"/><path id="path4310" fill="#fff" d="m101.6 176.7v69l-34.5-34.5 34.5-34.5m0.2-0.5-35 35 35 35z" class="st7"/></g><g id="g4318" transform="translate(-2.8,-1.3)"><polygon id="polygon4314" fill="#9575b3" points="55.5 53.8 90.3 18.9 125.1 53.8 90.2 88.6" class="st18"/><path id="path4316" fill="#fff" d="m90.3 19.1 34.7 34.7-34.8 34.6-34.6-34.6 34.7-34.7m0-0.3-35 35 34.9 34.9 35.1-34.9z" class="st7"/></g><g id="g4324" transform="translate(-2.8,-1.3)"><polygon id="polygon4320" fill="#673a93" points="177.5 106.4 142.8 141.1 108 106.4" class="st19"/><path id="path4322" fill="#fff" d="m177.3 106.5-34.5 34.5-34.5-34.5h69m0.5-0.2h-70l35 35z" class="st7"/></g><g id="g4330" transform="translate(-2.8,-1.3)"><polygon id="polygon4326" fill="#673a93" points="3.1 176.1 37.9 141.3 107.5 141.3 72.8 176.1" class="st19"/><path id="path4328" fill="#fff" d="m107.3 141.4-34.6 34.6h-69.4l34.6-34.6h69.4m0.5-0.2h-70l-35 35h70z" class="st7"/></g><g id="g4336" transform="translate(-2.8,-1.3)"><polygon id="polygon4332" fill="#ae97c6" points="107.5 1.4 37.9 71 37.9 1.4" class="st20"/><path id="path4334" fill="#fff" d="m107.3 1.5-69.3 69.3v-69.3h69.3m0.5-0.2h-70v70z" class="st7"/></g></svg>