<svg xmlns="http://www.w3.org/2000/svg" id="OSS_x5F_Review_x5F_Toolkit" width="175" height="244.9" version="1.1" viewBox="0 0 175 244.9" xml:space="preserve"><metadata id="metadata4783"/><style id="style4687" type="text/css">.st1{fill:#fff;stroke:#fff;stroke-width:.4;stroke-miterlimit:10}.st3{filter:url(#Adobe_OpacityMaskFilter)}.st7{fill:#fff}.st24{fill:#66cfcc}.st25{fill:#80d7d4}.st26{fill:#1fb9b4}.st27{fill:#99dfdd}.st28{fill:#00afaa}.st29{fill:#b2e7e5}.st30{fill:#85d9d6}</style><path id="path4689" fill="#fff" stroke="#fff" stroke-miterlimit="10" stroke-width=".4" d="m134 203.9 41 41h-140l-35-35h70l35-35-41-41v49.5l-49.5-49.5v-49.5l20.5 20.5 70-70.1 35-34.9 35 35-69.9 69.9h29v99.1z" class="st1"/><defs id="defs4694"><filter id="Adobe_OpacityMaskFilter" width="174.9" height="244.9" x="2.8" y="2.3" filterUnits="userSpaceOnUse"><feColorMatrix id="feColorMatrix4691" values="1 0 0 0 0 0 1 0 0 0 0 0 1 0 0 0 0 0 1 0"/></filter></defs><mask id="SVGID_1_" width="174.9" height="244.9" x="2.8" y="2.3" maskUnits="userSpaceOnUse"><g id="g4715" class="st3" filter="url(#Adobe_OpacityMaskFilter)"><linearGradient id="SVGID_2_" x1="131.01" x2="49.293" y1="230.62" y2="6.101" gradientUnits="userSpaceOnUse"><stop id="stop4696" offset="0" stop-color="#fff"/><stop id="stop4698" offset=".108" stop-color="#F9F9F9"/><stop id="stop4700" offset=".252" stop-color="#E8E8E8"/><stop id="stop4702" offset=".415" stop-color="#CDCDCD"/><stop id="stop4704" offset=".593" stop-color="#A6A6A6"/><stop id="stop4706" offset=".782" stop-color="#757575"/><stop id="stop4708" offset=".979" stop-color="#3A3A3A"/><stop id="stop4710" offset="1" stop-color="#333"/></linearGradient><rect id="rect4713" width="183.8" height="244.9" x=".6" y="2.3" fill="url(#SVGID_2_)" stroke="#fff" stroke-miterlimit="10" stroke-width=".31"/></g></mask><g id="g4722" transform="translate(-2.8,-2.3)"><polygon id="polygon4718" fill="#66cfcc" points="107.8 177.3 177.5 247.1 38.1 247.1" class="st24"/><path id="path4720" fill="#fff" d="m107.8 177.5 69.5 69.5h-139l69.5-69.5m0-0.3-70 70h139.9z" class="st7"/></g><g id="g4728" transform="translate(-2.8,-2.3)"><polygon id="polygon4724" fill="#80d7d4" points="136.7 107.3 136.7 205.9 38.1 107.3" class="st25"/><path id="path4726" fill="#fff" d="m136.6 107.4v98.3l-98.3-98.3h98.3m0.2-0.2h-99l98.9 98.9v-98.9z" class="st7"/></g><g id="g4734" transform="translate(-2.8,-2.3)"><polygon id="polygon4730" fill="#1fb9b4" points="142.6 72.2 107.9 107 107.9 37.4" class="st26"/><path id="path4732" fill="#fff" d="m108 37.6 34.5 34.6-34.5 34.5v-69.1m-0.2-0.5v70.1l35-35z" class="st7"/></g><g id="g4740" transform="translate(-2.8,-2.3)"><polygon id="polygon4736" fill="#99dfdd" points="107.9 37.1 142.8 2.4 177.6 37.3 142.8 72.1" class="st27"/><path id="path4738" fill="#fff" d="m142.8 2.6 34.7 34.7-34.7 34.7-34.7-34.8 34.7-34.6m0-0.3-35 34.9 35 35.1 35-35z" class="st7"/></g><g id="g4746" transform="translate(-2.8,-2.3)"><polygon id="polygon4742" fill="#00afaa" points="72.6 212.3 37.8 247 3.1 212.3" class="st28"/><path id="path4744" fill="#fff" d="m3.3 212.4h69l-34.5 34.5-34.5-34.5m-0.5-0.2 35 35 35-35z" class="st7"/></g><g id="g4752" transform="translate(-2.8,-2.3)"><polygon id="polygon4748" fill="#b2e7e5" points="17.4 136.1 17.4 86.9 66.7 136.2 66.7 185.4" class="st29"/><path id="path4750" fill="#fff" d="m17.5 87.2 49.1 49.1v48.9l-49.1-49.1v-48.9m-0.2-0.5v49.5l49.5 49.5v-49.5z" class="st7"/></g><g id="g4758" transform="translate(-2.8,-2.3)"><polygon id="polygon4754" fill="#85d9d6" points="107.7 107.1 38.1 107.1 107.7 37.4" class="st30"/><path id="path4756" fill="#fff" d="m107.6 37.6v69.4h-69.3l69.3-69.4m0.2-0.5-70 70.1h70z" class="st7"/></g></svg>