<svg xmlns="http://www.w3.org/2000/svg" id="OSS_x5F_Review_x5F_Toolkit" width="197.8" height="197.8" version="1.1" viewBox="0 0 197.8 197.8" xml:space="preserve"><metadata id="metadata5563"/><style id="style5459" type="text/css">.st1{fill:#fff;stroke:#fff;stroke-width:.4;stroke-miterlimit:10}.st3{filter:url(#Adobe_OpacityMaskFilter)}.st7{fill:#fff}.st34{fill:#ecbed6}.st35{fill:#d878aa}.st36{fill:#c53580}.st37{fill:#d56ea4}.st38{fill:#cb498d}.st39{fill:#df90b9}.st40{fill:#f0cade}</style><path id="path5461" fill="#fff" stroke="#fff" stroke-miterlimit="10" stroke-width=".4" d="m49.4 0h99l-0.1 98.9h49.5l-98.9 98.9-99-98.9h49.4v-98.9z" class="st1"/><defs id="defs5466"><filter id="Adobe_OpacityMaskFilter" width="197.9" height="197.9" x="2.9" y="1.7" filterUnits="userSpaceOnUse"><feColorMatrix id="feColorMatrix5463" color-interpolation-filters="sRGB" result="source" values="-1 0 0 0 1 0 -1 0 0 1 0 0 -1 0 1 0 0 0 1 0"/></filter></defs><mask id="SVGID_1_" width="197.9" height="197.9" x="2.9" y="1.7" maskUnits="userSpaceOnUse"><g id="g5491" class="st3" filter="url(#Adobe_OpacityMaskFilter)"><linearGradient id="SVGID_2_" x1="2.876" x2="201.12" y1="89.907" y2="89.907" gradientUnits="userSpaceOnUse"><stop id="stop5468" offset=".057" stop-color="#B3B3B3"/><stop id="stop5470" offset=".11" stop-color="#9E9D9D"/><stop id="stop5472" offset=".211" stop-color="#7B7A7A"/><stop id="stop5474" offset=".313" stop-color="#605E5E"/><stop id="stop5476" offset=".416" stop-color="#4C4A4B"/><stop id="stop5478" offset=".518" stop-color="#413E3F"/><stop id="stop5480" offset=".622" stop-color="#3D3A3B"/><stop id="stop5482" offset=".669" stop-color="#343132"/><stop id="stop5484" offset=".886" stop-color="#0E0E0E"/><stop id="stop5486" offset="1"/></linearGradient><rect id="rect5489" width="198.2" height="220.6" x="2.9" y="-20.4" fill="url(#SVGID_2_)" stroke="#fff" stroke-miterlimit="10" stroke-width=".317"/></g></mask><g id="g5498" transform="translate(-2.9,-1.7)"><polygon id="polygon5494" fill="#ecbed6" points="200.5 100.7 101.9 199.3 101.9 100.7" class="st34"/><path id="path5496" fill="#fff" d="m200.2 100.8-98.2 98.3v-98.2h98.2m0.5-0.3h-98.9v98.9z" class="st7"/></g><g id="g5504" transform="translate(-2.9,-1.7)"><polygon id="polygon5500" fill="#d878aa" points="101.7 100.7 101.7 199.3 3.1 100.7" class="st35"/><path id="path5502" fill="#fff" d="m3.4 100.8h98.2v98.2l-98.2-98.2m-0.5-0.2 98.9 98.9v-98.9z" class="st7"/></g><g id="g5510" transform="translate(-2.9,-1.7)"><polygon id="polygon5506" fill="#c53580" points="151.2 1.9 151.2 51.1 102 51.1" class="st36"/><path id="path5508" fill="#fff" d="m151.1 2.2v48.8h-48.9l48.9-48.8m0.2-0.5-49.5 49.5h49.5z" class="st7"/></g><g id="g5516" transform="translate(-2.9,-1.7)"><polygon id="polygon5512" fill="#d56ea4" points="101.9 100.5 101.9 51.3 151.2 51.3 151.1 100.5" class="st37"/><path id="path5514" fill="#fff" d="m151.1 51.4-0.1 49.1h-49v-49.1h49.1m0.2-0.2h-49.5v49.5h49.5z" class="st7"/></g><g id="g5522" transform="translate(-2.9,-1.7)"><polygon id="polygon5518" fill="#cb498d" points="52.4 51.4 101.5 100.5 52.4 100.5" class="st38"/><path id="path5520" fill="#fff" d="m52.5 51.6 48.8 48.8h-48.8v-48.8m-0.2-0.4v49.5h49.5z" class="st7"/></g><g id="g5528" transform="translate(-2.9,-1.7)"><polygon id="polygon5524" fill="#df90b9" points="52.4 51.1 52.4 1.9 101.7 51.2 101.7 100.4" class="st39"/><path id="path5526" fill="#fff" d="m52.5 2.2 49.1 49.1v48.9l-49.1-49.1v-48.9m-0.2-0.5v49.5l49.5 49.5v-49.5z" class="st7"/></g><g id="g5534" transform="translate(-2.9,-1.7)"><polygon id="polygon5530" fill="#f0cade" points="151.1 1.8 101.8 51 52.5 1.8" class="st40"/><path id="path5532" fill="#fff" d="m150.8 1.9-49.1 49-49-49h98.1m0.5-0.2h-99l49.5 49.5z" class="st7"/></g></svg>