<svg xmlns="http://www.w3.org/2000/svg" id="OSS_x5F_Review_x5F_Toolkit" width="279.8" height="204" version="1.1" viewBox="0 0 279.8 204" xml:space="preserve"><metadata id="metadata5665"/><style id="style5565" type="text/css">.st1{fill:#fff;stroke:#fff;stroke-width:.4;stroke-miterlimit:10}.st3{filter:url(#Adobe_OpacityMaskFilter)}.st7{fill:#fff}.st53{fill:#b1d6ef}.st54{fill:#8fc3e8}.st55{fill:#86bfe6}.st56{fill:#a8d1ed}.st57{fill:#52a3db}.st58{fill:#7dbae4}</style><path id="path5567" fill="#fff" stroke="#fff" stroke-miterlimit="10" stroke-width=".4" d="m140 154.5 49.5 49.5h-99zm-24.8-49.6v49.6h49.4v-49.6h115.2l-70-70-35 35v-70h-70l35 35-35 35-35-35-70 70z" class="st1"/><defs id="defs5572"><filter id="Adobe_OpacityMaskFilter" width="279.9" height="204" x="2.8" y="2.2" filterUnits="userSpaceOnUse"><feColorMatrix id="feColorMatrix5569" color-interpolation-filters="sRGB" result="source" values="-1 0 0 0 1 0 -1 0 0 1 0 0 -1 0 1 0 0 0 1 0"/></filter></defs><mask id="SVGID_1_" width="279.9" height="204" x="2.8" y="2.2" maskUnits="userSpaceOnUse"><g id="g5595" class="st3" filter="url(#Adobe_OpacityMaskFilter)"><linearGradient id="SVGID_2_" x1="-8.305" x2="293.84" y1="15.339" y2="189.79" gradientUnits="userSpaceOnUse"><stop id="stop5574" offset="0" stop-color="#C4C4C4" stop-opacity=".8"/><stop id="stop5576" offset=".061" stop-color="#A9A9A9" stop-opacity=".812"/><stop id="stop5578" offset=".175" stop-color="#7D7D7D" stop-opacity=".835"/><stop id="stop5580" offset=".295" stop-color="#565656" stop-opacity=".859"/><stop id="stop5582" offset=".417" stop-color="#373737" stop-opacity=".883"/><stop id="stop5584" offset=".545" stop-color="#1F1F1F" stop-opacity=".909"/><stop id="stop5586" offset=".679" stop-color="#0D0D0D" stop-opacity=".936"/><stop id="stop5588" offset=".824" stop-color="#030303" stop-opacity=".965"/><stop id="stop5590" offset="1"/></linearGradient><rect id="rect5593" width="279.9" height="213" x="2.8" y="-4" fill="url(#SVGID_2_)" stroke="#fff" stroke-miterlimit="10" stroke-width=".317"/></g></mask><g id="g5602" transform="translate(-2.8,-2.2)"><polygon id="polygon5598" fill="#b1d6ef" points="212.7 37.3 282.5 107 143 107" class="st53"/><path id="path5600" fill="#fff" d="m212.7 37.4 69.5 69.5h-139l69.5-69.5m0-0.2-70 70h139.9z" class="st7"/></g><g id="g5608" transform="translate(-2.8,-2.2)"><polygon id="polygon5604" fill="#8fc3e8" points="72.8 37.3 142.5 107 3.1 107" class="st54"/><path id="path5606" fill="#fff" d="m72.8 37.4 69.5 69.5h-139l69.5-69.5m0-0.2-70 70h139.9z" class="st7"/></g><g id="g5614" transform="translate(-2.8,-2.2)"><polygon id="polygon5610" fill="#86bfe6" points="177.5 2.3 142.8 37 108 2.3" class="st55"/><path id="path5612" fill="#fff" d="m177.3 2.4-34.5 34.5-34.5-34.5h69m0.5-0.2h-70l35 35z" class="st7"/></g><g id="g5620" transform="translate(-2.8,-2.2)"><polygon id="polygon5616" fill="#a8d1ed" points="142.7 37.4 142.7 106.9 107.9 72.1" class="st56"/><path id="path5618" fill="#fff" d="m142.6 37.6v69l-34.5-34.5 34.5-34.5m0.2-0.4-35 35 35 35z" class="st7"/></g><g id="g5626" transform="translate(-2.8,-2.2)"><polygon id="polygon5622" fill="#52a3db" points="142.9 37.2 177.7 2.4 177.7 72.1 142.9 106.9" class="st57"/><path id="path5624" fill="#fff" d="m177.6 2.7v69.4l-34.6 34.6v-69.5l34.6-34.5m0.2-0.5-35 35v70l35-35z" class="st7"/></g><g id="g5632" transform="translate(-2.8,-2.2)"><polygon id="polygon5628" fill="#a8d1ed" points="142.8 156.8 192 206.1 93.5 206.1" class="st56"/><path id="path5630" fill="#fff" d="m142.8 157 49 49h-98l49-49m0-0.3-49.5 49.5h98.9z" class="st7"/></g><g id="g5638" transform="translate(-2.8,-2.2)"><rect id="rect5634" width="49.3" height="49.4" x="118.1" y="107.2" fill="#7dbae4" class="st58"/><path id="path5636" fill="#fff" d="m167.3 107.3v49.2h-49.1v-49.2h49.1m0.2-0.2h-49.5v49.6h49.5z" class="st7"/></g></svg>