<svg xmlns="http://www.w3.org/2000/svg" id="OSS_x5F_Review_x5F_Toolkit" width="259.2" height="259.2" version="1.1" viewBox="0 0 259.2 259.2" xml:space="preserve"><style id="style1" type="text/css">.st2{fill:#fff;stroke:#fff;stroke-width:1.5;stroke-miterlimit:10}.st3{filter:url(#Adobe_OpacityMaskFilter)}.st4{fill:url(#SVGID_2_)}.st5{mask:url(#SVGID_1_)}.st7{fill:#fff}.st8{fill:#c41c33}.st19{fill:#673a93}.st28{fill:#00afaa}.st46{fill:#ec610e}.st57{fill:#52a3db}.st62{fill:#fab800}.st93{fill:#59cbc8}.st94{opacity:.5}</style><polygon id="polygon1" points="2.8 173.1 2.8 259 88.7 259 174.6 258.9 260.5 173.1 260.5 1.3 88.7 1.3 2.8 87.2" class="st2" transform="translate(-2.05 -.55)"/><g id="g29" transform="translate(-2.05 -.55)"><defs id="defs1"><filter id="Adobe_OpacityMaskFilter" width="257.7" height="257.7" x="2.8" y="1.3" filterUnits="userSpaceOnUse"><feColorMatrix id="feColorMatrix1" values="1 0 0 0 0 0 1 0 0 0 0 0 1 0 0 0 0 0 1 0"/></filter></defs><mask id="SVGID_1_" width="257.7" height="257.7" x="2.8" y="1.3" maskUnits="userSpaceOnUse"><g id="g18" class="st3"><linearGradient id="SVGID_2_" x1="-1103.4" x2="-1314.5" y1="463.1" y2="679.01" gradientTransform="translate(1334 -435.53)" gradientUnits="userSpaceOnUse"><stop id="stop1" offset="0" stop-color="#fff"/><stop id="stop2" offset=".113" stop-color="#F9F9F9"/><stop id="stop3" offset=".262" stop-color="#E8E8E8"/><stop id="stop4" offset=".432" stop-color="#CDCDCD"/><stop id="stop5" offset=".617" stop-color="#A6A6A6"/><stop id="stop6" offset=".812" stop-color="#767676"/><stop id="stop7" offset="1" stop-color="#404040"/></linearGradient><rect id="rect7" width="259" height="264.7" x="1.5" y="-2.9" class="st4"/><radialGradient id="SVGID_3_" cx="-2704.3" cy="2026.4" r="80.678" fx="-2726.8" fy="2028.4" gradientTransform="matrix(-2.882 -2.1339 .6264 -.8836 -8820.8 -3807.8)" gradientUnits="userSpaceOnUse"><stop id="stop8" offset="0" stop-color="#0D0D0D"/><stop id="stop9" offset=".145" stop-color="#303030" stop-opacity=".956"/><stop id="stop10" offset="1" stop-color="#fff" stop-opacity=".7"/></radialGradient><rect id="rect10" width="259" height="264.7" x="1.5" y="-2.9" fill="url(#SVGID_3_)" opacity=".4"/><linearGradient id="SVGID_4_" x1="1722.3" x2="1469" y1="-2853.9" y2="-2707.6" gradientTransform="rotate(90 -590.23 -2063.6)" gradientUnits="userSpaceOnUse"><stop id="stop11" offset="0" stop-color="#fff" stop-opacity="0"/><stop id="stop12" offset=".108" stop-color="#F9F9F9" stop-opacity=".108"/><stop id="stop13" offset=".252" stop-color="#E8E8E8" stop-opacity=".252"/><stop id="stop14" offset=".415" stop-color="#CDCDCD" stop-opacity=".415"/><stop id="stop15" offset=".593" stop-color="#A6A6A6" stop-opacity=".593"/><stop id="stop16" offset=".782" stop-color="#757575" stop-opacity=".782"/><stop id="stop17" offset=".979" stop-color="#3A3A3A" stop-opacity=".979"/><stop id="stop18" offset="1" stop-color="#333"/></linearGradient><polygon id="polygon18" fill="url(#SVGID_4_)" points="260.5 261.7 260.5 -2.9 1.5 -2.9 1.5 261.7" opacity=".9"/></g></mask><g id="g27" class="st5" mask="url(#SVGID_1_)"><g id="g19"><polygon id="polygon19" points="88.3 86.8 3.7 86.8 88.3 2.2" class="st62"/><path id="path19" d="m88 3.1v83.3h-83.4l83.4-83.3m0.7-1.8-85.9 85.9h85.9z" class="st7"/></g><g id="g21"><polygon id="polygon20" points="259.6 172.7 89.1 172.7 89.1 2.2" class="st93"/><g id="g20"><path id="path20" d="m89.5 3.1 169.2 169.2h-169.2v-169.2m-0.8-1.8v171.8h171.8z" class="st7"/></g></g><g id="g22"><polygon id="polygon21" points="260.1 172.2 89.6 1.7 260.1 1.7" class="st28"/><path id="path21" d="m259.7 2v169.2l-169.2-169.2h169.2m0.8-0.7h-171.8l171.8 171.8z" class="st7"/></g><g id="g23"><rect id="rect22" width="85.1" height="85.1" x="3.2" y="87.6" class="st46"/><path id="path22" d="m88 87.9v84.4h-84.4v-84.4h84.4m0.7-0.7h-85.9v85.9h85.9z" class="st7"/></g><g id="g24"><polygon id="polygon23" points="87.8 258.6 3.2 258.6 3.2 174" class="st57"/><path id="path23" d="m3.6 174.9 83.3 83.3h-83.3v-83.3m-0.8-1.8v85.9h85.9z" class="st7"/></g><g id="g25"><polygon id="polygon24" points="259.6 173.4 174.4 258.6 89.6 258.6 174.8 173.4" class="st19"/><path id="path24" d="m258.7 173.8-84.4 84.4h-83.8l84.4-84.4h83.8m1.8-0.7h-85.9l-85.9 85.9h85.9z" class="st7"/></g><g id="g26"><polygon id="polygon25" points="88.7 258.4 3.7 173.4 173.7 173.4" class="st8"/><path id="path25" d="m172.8 173.8-84.1 84.1-84.1-84.1h168.2m1.8-0.7h-171.8l85.9 85.9z" class="st7"/></g></g><g id="g28" class="st94"><polygon id="polygon27" points="87.8 258.6 3.2 258.6 3.2 174" class="st57"/><path id="path27" d="m3.6 174.9 83.3 83.3h-83.3v-83.3m-0.8-1.8v85.9h85.9z" class="st7"/></g></g></svg>