<svg xmlns="http://www.w3.org/2000/svg" id="OSS_x5F_Review_x5F_Toolkit" width="183.6" height="154.4" version="1.1" viewBox="0 0 183.6 154.4" xml:space="preserve"><metadata id="metadata5765"/><style id="style5667" type="text/css">.st1{fill:#fff;stroke:#fff;stroke-width:.4;stroke-miterlimit:10}.st3{filter:url(#Adobe_OpacityMaskFilter)}.st7{fill:#fff}.st44{fill:#f39862}.st45{fill:#f0813e}.st46{fill:#ec610e}.st47{fill:#f7bb97}.st48{fill:#f29056}.st49{fill:#f9ccb2}</style><path id="path5669" fill="#fff" stroke="#fff" stroke-miterlimit="10" stroke-width=".4" d="m49.5 104.9 14.5 14.5h70l35 35h-169v-98.9l49.5-49.5 64.1 64v-70l35 35 35-35v70l-35.1 35z" class="st1"/><defs id="defs5674"><filter id="Adobe_OpacityMaskFilter" width="183.5" height="154.4" x="2.8" y="3.6" filterUnits="userSpaceOnUse"><feColorMatrix id="feColorMatrix5671" values="1 0 0 0 0 0 1 0 0 0 0 0 1 0 0 0 0 0 1 0"/></filter></defs><mask id="SVGID_1_" width="183.5" height="154.4" x="2.8" y="3.6" maskUnits="userSpaceOnUse"><g id="g5697" class="st3" filter="url(#Adobe_OpacityMaskFilter)"><linearGradient id="SVGID_2_" x1="64.905" x2="123.3" y1="5.12" y2="165.55" gradientUnits="userSpaceOnUse"><stop id="stop5676" offset=".057" stop-color="#fff"/><stop id="stop5678" offset=".22" stop-color="#FCFCFC"/><stop id="stop5680" offset=".354" stop-color="#F1F1F1"/><stop id="stop5682" offset=".479" stop-color="#E0E0E0"/><stop id="stop5684" offset=".597" stop-color="#C8C8C8"/><stop id="stop5686" offset=".712" stop-color="#A9A9A9"/><stop id="stop5688" offset=".822" stop-color="#828282"/><stop id="stop5690" offset=".929" stop-color="#555"/><stop id="stop5692" offset="1" stop-color="#333"/></linearGradient><rect id="rect5695" width="187.8" height="154.4" x="-1.5" y="3.6" fill="url(#SVGID_2_)" stroke="#fff" stroke-miterlimit="10" stroke-width=".31"/></g></mask><g id="g5704" transform="translate(-2.8,-3.6)"><polygon id="polygon5700" fill="#f39862" points="52.4 9.8 151 108.4 52.4 108.4" class="st44"/><path id="path5702" fill="#fff" d="m52.5 10.1 98.3 98.3h-98.3v-98.3m-0.2-0.5v98.9h98.9z" class="st7"/></g><g id="g5710" transform="translate(-2.8,-3.6)"><polygon id="polygon5706" fill="#f0813e" points="2.9 59.3 101.5 157.9 2.9 157.9" class="st45"/><path id="path5708" fill="#fff" d="m3 59.5 98.3 98.3h-98.3v-98.3m-0.2-0.4v98.9h98.9z" class="st7"/></g><g id="g5716" transform="translate(-2.8,-3.6)"><polygon id="polygon5712" fill="#ec610e" points="186.3 3.8 186.3 73.3 151.5 38.6" class="st46"/><path id="path5714" fill="#fff" d="m186.2 4.1v69l-34.5-34.5 34.5-34.5m0.2-0.5-35 35 35 35z" class="st7"/></g><g id="g5722" transform="translate(-2.8,-3.6)"><polygon id="polygon5718" fill="#f7bb97" points="116.5 73.5 151.4 38.7 186.2 73.5 151.3 108.4" class="st47"/><path id="path5720" fill="#fff" d="m151.4 38.8 34.7 34.7-34.8 34.7-34.6-34.7 34.7-34.7m0-0.2-35 35 34.9 35 35.1-35z" class="st7"/></g><g id="g5728" transform="translate(-2.8,-3.6)"><polygon id="polygon5724" fill="#f29056" points="151.2 38.6 116.5 73.3 116.5 3.8" class="st48"/><path id="path5726" fill="#fff" d="m116.6 4.1 34.5 34.5-34.5 34.5v-69m-0.2-0.5v70l35-35z" class="st7"/></g><g id="g5734" transform="translate(-2.8,-3.6)"><polygon id="polygon5730" fill="#f39862" points="101.8 157.9 67 123.1 136.8 123.1 171.5 157.9" class="st44"/><path id="path5732" fill="#fff" d="m67.3 123.2h69.4l34.6 34.6h-69.4l-34.6-34.6m-0.5-0.2 35 35h70l-35-35z" class="st7"/></g><g id="g5740" transform="translate(-2.8,-3.6)"><polygon id="polygon5736" fill="#f9ccb2" points="52.2 9.8 52.2 108.3 3 59.1" class="st49"/><path id="path5738" fill="#fff" d="m52.1 10.1v98l-49-49 49-49m0.2-0.5-49.5 49.5 49.5 49.5z" class="st7"/></g></svg>