<svg xmlns="http://www.w3.org/2000/svg" id="OSS_x5F_Review_x5F_Toolkit" width="273.7" height="198.1" version="1.1" viewBox="0 0 273.7 198.1" xml:space="preserve"><metadata id="metadata5861"/><style id="style5767" type="text/css">.st1{fill:#fff;stroke:#fff;stroke-width:.4;stroke-miterlimit:10}.st3{filter:url(#Adobe_OpacityMaskFilter)}.st4{fill:url(#SVGID_2_)}.st6{fill:#d14e60}.st7{fill:#fff}.st8{fill:#c41c33}.st9{fill:#d4596a}.st10{fill:#e18d99}.st11{fill:#e3949f}</style><path id="path5769" fill="#fff" stroke="#fff" stroke-miterlimit="10" stroke-width=".4" d="m131 68.7 91.3 38.1-38.1 91.3-26.5-64.7-64.7 26.6-15.8 37.9-37.7-91.5zm-57.9 1.1-3.2-69.8-33.3 36.5-36.6-33.4 3.1 69.9 36.4 33.4zm160.4-32.1-11.2 69.1 40.1-29 11.2-69.1z" class="st1"/><defs id="defs5774"><filter id="Adobe_OpacityMaskFilter" width="273.6" height="198.2" x="2.8" y="1.6" filterUnits="userSpaceOnUse"><feColorMatrix id="feColorMatrix5771" values="1 0 0 0 0 0 1 0 0 0 0 0 1 0 0 0 0 0 1 0"/></filter></defs><mask id="SVGID_1_" width="273.6" height="198.2" x="2.8" y="1.6" maskUnits="userSpaceOnUse"><g id="g5795" class="st3" filter="url(#Adobe_OpacityMaskFilter)"><linearGradient id="SVGID_2_" x1="232.34" x2="38.128" y1="3.013" y2="201.63" gradientUnits="userSpaceOnUse"><stop id="stop5776" offset="0" stop-color="#fff"/><stop id="stop5778" offset=".108" stop-color="#F9F9F9"/><stop id="stop5780" offset=".252" stop-color="#E8E8E8"/><stop id="stop5782" offset=".415" stop-color="#CDCDCD"/><stop id="stop5784" offset=".593" stop-color="#A6A6A6"/><stop id="stop5786" offset=".782" stop-color="#757575"/><stop id="stop5788" offset=".979" stop-color="#3A3A3A"/><stop id="stop5790" offset="1" stop-color="#333"/></linearGradient><rect id="rect5793" width="277" height="205.6" x="2.3" y="-6.1" fill="url(#SVGID_2_)" class="st4"/></g></mask><g id="g5802" transform="translate(-2.8,-1.6)"><polygon id="polygon5798" fill="#d14e60" points="133.6 70.5 80 199.2 42.5 108" class="st6"/><path id="path5800" fill="#fff" d="m133.5 70.7-53.5 128.3-37.4-90.9 90.9-37.4m0.3-0.4-91.5 37.7 37.7 91.5z" class="st7"/></g><g id="g5808" transform="translate(-2.8,-1.6)"><polygon id="polygon5804" fill="#c41c33" points="225 108.4 187.1 199.4 134 70.5" class="st8"/><path id="path5806" fill="#fff" d="m134.2 70.7 90.7 37.8-37.8 90.7-52.9-128.5m-0.4-0.4 53.3 129.4 38.1-91.3z" class="st7"/></g><g id="g5814" transform="translate(-2.8,-1.6)"><polygon id="polygon5810" fill="#d4596a" points="72.6 1.8 75.8 71.2 39.5 38.1" class="st9"/><path id="path5812" fill="#fff" d="m72.5 2 3.2 69-36.1-32.9 32.9-36.1m0.2-0.4-33.4 36.5 36.6 33.3z" class="st7"/></g><g id="g5820" transform="translate(-2.8,-1.6)"><polygon id="polygon5816" fill="#e18d99" points="6.1 74.6 39.3 38.2 75.7 71.5 42.3 107.9" class="st10"/><path id="path5818" fill="#fff" d="m39.4 38.4 36.2 33.1-33.2 36.2-36.2-33.1 33.2-36.2m-0.1-0.3-33.4 36.5 36.4 33.4 33.5-36.5z" class="st7"/></g><g id="g5826" transform="translate(-2.8,-1.6)"><polygon id="polygon5822" fill="#c41c33" points="39.2 38.1 6 74.3 2.9 4.9" class="st8"/><path id="path5824" fill="#fff" d="m3.1 5.2 36 32.9-32.9 36-3.1-68.9m-0.3-0.5 3.1 69.9 33.4-36.5z" class="st7"/></g><g id="g5832" transform="translate(-2.8,-1.6)"><polygon id="polygon5828" fill="#e3949f" points="236.4 39.3 276.3 10.6 265.2 79.4 225.3 108.1" class="st11"/><path id="path5830" fill="#fff" d="m276.2 10.8-11.1 68.5-39.7 28.6 11.1-68.5 39.7-28.6m0.3-0.5-40.1 29-11.2 69.1 40.1-29z" class="st7"/></g><g id="g5838" transform="translate(-2.8,-1.6)"><polygon id="polygon5834" fill="#e18d99" points="160.3 135 96 161.5 133.8 70.6" class="st10"/><path id="path5836" fill="#fff" d="m133.8 70.8 26.4 64.1-64.1 26.4 37.7-90.5m0-0.5-38.1 91.3 64.7-26.6z" class="st7"/></g></svg>